# xmcd
#
# Track frame offsets: 
#        150
#        39000
#        56437
#        66220
#        82902
#        93245
#        127115
#        138910
#        174015
#
# Disc length: 2578 seconds
#
# Revision: 3
# Processed by: cddbd v1.5.2PL0 Copyright (c) Steve Scherf et al.
# Submitted via: ExactAudioCopy v1.0b2
#
DISCID=650a1009
DTITLE=Various Artist - Space Battleship Yamato CD-BOX - Be Forever Yamato Part 
DTITLE=2
DYEAR=2004
DGENRE=Soundtrack
TTITLE0=Be Forever Yamato - Dedicated to Sasha (Mio)
TTITLE1=Battle for Earth
TTITLE2=Disappointed Love
TTITLE3=New Space II (Double Galaxy)
TTITLE4=Two Who Believe in Each Other
TTITLE5=Collapse of the Mother Planet (Dezariam)
TTITLE6=Mio's March
TTITLE7=The Decisive Battle
TTITLE8=Birth of a New Galaxy
EXTD=YEAR: 1980.9.20
EXTT0=
EXTT1=
EXTT2=
EXTT3=
EXTT4=
EXTT5=
EXTT6=
EXTT7=
EXTT8=
PLAYORDER=
